<svg xmlns="http://www.w3.org/2000/svg" height="20" width="20"><path fill="#1A658F" d="m16.375 18.333-1.729-1.666q-1.063.729-2.208 1.323-1.146.593-2.438.593-1.771 0-3.333-.677-1.563-.677-2.73-1.844-1.166-1.166-1.843-2.729-.677-1.562-.677-3.333 0-1.354.437-2.625Q2.292 6.104 3.062 5L1.896 3.854l1.146-1.146L17.5 17.188Zm-7.417-1.458v-1.542q-.458 0-.791-.333-.334-.333-.334-.792v-1.041L3.188 8.521q-.063.354-.105.719-.041.364-.041.76 0 2.646 1.677 4.552 1.677 1.906 4.239 2.323Zm8.188-2.125-1.167-1.208q.479-.813.729-1.709.25-.895.25-1.854 0-2.021-1.198-3.625t-3.093-2.333v.041q0 .667-.479 1.146-.48.48-1.146.48H8.958v.833L5.25 2.833q1.042-.708 2.26-1.062 1.219-.354 2.49-.354 1.792 0 3.344.677 1.552.677 2.718 1.844 1.167 1.166 1.844 2.718T18.583 10q0 1.271-.364 2.49-.365 1.218-1.073 2.26Z"/></svg>
