<svg xmlns="http://www.w3.org/2000/svg" height="20" width="20"><path fill="#1A658F" d="M10 18.583q-1.771 0-3.333-.677-1.563-.677-2.73-1.844-1.166-1.166-1.843-2.729-.677-1.562-.677-3.354 0-1.771.677-3.323t1.843-2.718q1.167-1.167 2.73-1.844 1.562-.677 3.354-.677 1.771 0 3.323.677t2.718 1.844q1.167 1.166 1.844 2.729.677 1.562.677 3.333 0 1.771-.677 3.333-.677 1.563-1.844 2.729-1.166 1.167-2.729 1.844-1.562.677-3.333.677Zm-1.042-1.708v-1.542q-.458 0-.791-.333-.334-.333-.334-.792v-1.041L3.188 8.521q-.084.417-.115.781-.031.365-.031.698 0 2.604 1.677 4.552 1.677 1.948 4.239 2.323Zm6.375-2.437q.417-.459.719-.969.302-.511.5-1.084.198-.573.302-1.187.104-.615.104-1.219 0-2.146-1.156-3.896t-3.135-2.562v.541q0 .667-.479 1.146-.48.48-1.146.48H8.958v1.124q0 .417-.312.73-.313.312-.729.312H6.75v2.125h5.375q.417 0 .729.313.313.312.313.729v2.229h.937q.521 0 .875.344t.354.844Z"/></svg>
